<svg width="127" height="24" viewBox="0 0 127 24" fill="none" xmlns="http://www.w3.org/2000/svg">
<g clip-path="url(#clip0_3808_48286)">
<path d="M43.2943 17.8293L42.3798 14.9706C42.0521 14.1662 41.7833 13.711 41.2505 13.5054V13.3455C43.1766 12.6177 44.2789 10.9844 44.2789 8.85675C44.2789 5.81043 42.0712 3.841 38.6547 3.841H32.0508V20.9311H34.7706V14.5578H38.677C39.2496 14.5578 39.3736 14.6557 39.6265 15.3035L41.0087 19.213C41.6036 20.6896 41.9821 20.9311 43.7095 20.9311H44.6352V18.3008H43.9767C43.5536 18.3008 43.4629 18.2388 43.2943 17.8277V17.8293ZM34.7722 6.45004H38.3C40.2134 6.45004 41.4493 7.54815 41.4493 9.24672C41.4493 10.8507 40.2993 11.9292 38.5895 11.9292H34.7722V6.45004Z" fill="#E41939"/>
<path d="M50.8574 8.66266C47.4806 8.66266 45.2109 11.1917 45.2109 14.9576C45.2109 18.7235 47.5252 21.2526 50.9687 21.2526C53.6488 21.2526 55.8183 19.6568 56.3686 17.2844L56.3924 17.1832H53.9669L53.9462 17.2338C53.504 18.3466 52.424 19.0107 51.0578 19.0107C49.1778 19.0107 47.918 17.7935 47.6731 15.7474H56.5483V14.9576C56.5483 11.1917 54.2611 8.66266 50.8574 8.66266ZM50.8574 10.9274C52.6324 10.9274 53.7967 12.0728 54.0623 14.0765H47.6747C47.9403 12.0745 49.0966 10.9274 50.8574 10.9274Z" fill="#E41939"/>
<path d="M66.1651 10.6271H66.0236C65.3015 9.37727 64.0147 8.6626 62.4814 8.6626C61.1963 8.6626 60.0543 9.14068 59.1763 10.0463C58.0709 11.1884 57.4681 12.9327 57.4808 14.9576C57.4808 18.6647 59.5374 21.2526 62.4814 21.2526C64.0688 21.2526 65.3397 20.5314 66.0681 19.2195H66.1651V20.9327H68.7291V3.84265H66.1651V10.6271ZM63.1049 18.8051C61.3013 18.8051 60.0893 17.2582 60.0893 14.9576C60.0893 12.6569 61.3013 11.1329 63.1049 11.1329C64.9086 11.1329 66.1429 12.67 66.1429 14.9576C66.1429 17.2452 64.9213 18.8051 63.1049 18.8051Z" fill="#E41939"/>
<path d="M78.6076 11.084L75.8671 10.6957C74.3179 10.4999 73.4654 9.7085 73.4654 8.47006C73.4654 6.96077 74.7664 5.9475 76.7037 5.9475C78.641 5.9475 80.0295 7.03256 80.3222 8.84861L80.3333 8.91714H83.1883L83.174 8.82413C82.6937 5.54122 80.1981 3.5 76.6608 3.5C73.1234 3.5 70.6803 5.58038 70.6803 8.67565C70.6803 11.2455 72.3774 12.9474 75.3358 13.3488L78.097 13.7371C79.775 13.9606 80.6991 14.8075 80.6991 16.1226C80.6991 17.7151 79.2756 18.8279 77.2381 18.8279C75.005 18.8279 73.4065 17.4883 73.063 15.3329L73.0518 15.2643H70.2413L70.2556 15.359C70.7964 18.9388 73.5544 21.2526 77.2811 21.2526C81.0077 21.2526 83.5065 19.058 83.5065 15.917C83.5065 13.2443 81.7664 11.5278 78.606 11.084H78.6076Z" fill="#E41939"/>
<path d="M88.5249 6.03564H85.9832V9.00528H83.7787V11.3157H85.9609V18.4526C85.9609 20.1447 86.7291 20.9328 88.3785 20.9328H91.1302V18.5995H88.9798C88.6696 18.5995 88.5249 18.451 88.5249 18.1328V11.3157H91.1302V9.00528H88.5249V6.03564Z" fill="#E41939"/>
<path d="M97.3619 8.66266C93.9041 8.66266 91.5819 11.1917 91.5819 14.9576C91.5819 18.7235 93.9041 21.2526 97.3619 21.2526C100.82 21.2526 103.12 18.7235 103.12 14.9576C103.12 11.1917 100.805 8.66266 97.3619 8.66266ZM97.3619 18.8051C95.4644 18.8051 94.1904 17.2583 94.1904 14.9576C94.1904 12.657 95.4644 11.133 97.3619 11.133C99.2595 11.133 100.511 12.67 100.511 14.9576C100.511 17.2452 99.2451 18.8051 97.3619 18.8051Z" fill="#E41939"/>
<path d="M110.499 8.66266C109.004 8.66266 107.682 9.4736 106.955 10.8328H106.838V9.00531H104.407V20.9328H106.971V14.8434C106.971 12.6929 108.04 11.2472 109.631 11.2472C111.084 11.2472 112.023 12.3633 112.023 14.0896V20.9328H114.587V13.0616C114.587 10.4298 112.944 8.66266 110.499 8.66266Z" fill="#E41939"/>
<path d="M126.999 14.9576C126.999 11.1917 124.712 8.66266 121.308 8.66266C117.905 8.66266 115.662 11.1917 115.662 14.9576C115.662 18.7235 117.976 21.2526 121.42 21.2526C124.1 21.2526 126.269 19.6568 126.82 17.2844L126.843 17.1832H124.418L124.397 17.2338C123.955 18.3466 122.875 19.0107 121.509 19.0107C119.629 19.0107 118.369 17.7935 118.124 15.7474H126.999V14.9576ZM121.31 10.9274C123.085 10.9274 124.249 12.0728 124.515 14.0765H118.127C118.393 12.0745 119.549 10.9274 121.31 10.9274Z" fill="#E41939"/>
<path d="M20.9697 0.53916L20.9459 0.5H7.42944L0.63623 12L7.40558 23.4608L7.42944 23.5H20.9459L27.7391 12L20.9697 0.53916ZM9.4542 5.57938L6.19358 11.0993H3.09839L7.89865 2.97361L9.45261 5.57938H9.4542ZM10.8857 19.1663H17.4801L19.0229 21.8063H9.34286L10.8857 19.1663ZM17.4976 4.72602H10.8793L9.36831 2.19367H19.007L17.496 4.72602H17.4976ZM10.8873 17.4726L7.62348 11.9462L10.8873 6.41969H17.4864L20.7502 11.9462L17.4864 17.4726H10.8873ZM22.1817 11.0993L18.9227 5.58102L20.4767 2.97524L25.2753 11.0993H22.1817ZM9.45738 18.3195L7.88751 21.0068L3.03636 12.7946H6.19358L9.45738 18.3195ZM25.3405 12.793L20.4846 21.0133L18.9147 18.326L22.1833 12.793H25.3405Z" fill="#E41939"/>
</g>
<defs>
<clipPath id="clip0_3808_48286">
<rect width="127" height="24" fill="white"/>
</clipPath>
</defs>
</svg>
